<?xml version="1.0" encoding="UTF-8" standalone="no"?>
<!DOCTYPE svg PUBLIC "-//W3C//DTD SVG 1.1//EN"
 "http://www.w3.org/Graphics/SVG/1.1/DTD/svg11.dtd">
<!-- Generated by graphviz version 14.0.5 (20251129.0259)
 -->
<!-- Title: sequence_extraction Pages: 1 -->
<svg width="424pt" height="477pt"
 viewBox="0.00 0.00 424.00 477.00" xmlns="http://www.w3.org/2000/svg" xmlns:xlink="http://www.w3.org/1999/xlink">
<g id="graph0" class="graph" transform="scale(1 1) rotate(0) translate(4 472.5)">
<title>sequence_extraction</title>
<polygon fill="white" stroke="none" points="-4,4 -4,-472.5 419.5,-472.5 419.5,4 -4,4"/>
<!-- input -->
<g id="node1" class="node">
<title>input</title>
<path fill="white" stroke="black" d="M363.62,-468.5C363.62,-468.5 268.88,-468.5 268.88,-468.5 262.88,-468.5 256.88,-462.5 256.88,-456.5 256.88,-456.5 256.88,-444.5 256.88,-444.5 256.88,-438.5 262.88,-432.5 268.88,-432.5 268.88,-432.5 363.62,-432.5 363.62,-432.5 369.62,-432.5 375.62,-438.5 375.62,-444.5 375.62,-444.5 375.62,-456.5 375.62,-456.5 375.62,-462.5 369.62,-468.5 363.62,-468.5"/>
<text xml:space="preserve" text-anchor="middle" x="316.25" y="-446.23" font-family="Times New Roman,serif" font-size="12.00">Input DNA Sequence</text>
</g>
<!-- folmer -->
<g id="node2" class="node">
<title>folmer</title>
<path fill="white" stroke="black" d="M362.88,-365.5C362.88,-365.5 269.62,-365.5 269.62,-365.5 263.62,-365.5 257.62,-359.5 257.62,-353.5 257.62,-353.5 257.62,-341.5 257.62,-341.5 257.62,-335.5 263.62,-329.5 269.62,-329.5 269.62,-329.5 362.88,-329.5 362.88,-329.5 368.88,-329.5 374.88,-335.5 374.88,-341.5 374.88,-341.5 374.88,-353.5 374.88,-353.5 374.88,-359.5 368.88,-365.5 362.88,-365.5"/>
<text xml:space="preserve" text-anchor="middle" x="316.25" y="-343.23" font-family="Times New Roman,serif" font-size="12.00">Folmer Primer Match</text>
</g>
<!-- input&#45;&gt;folmer -->
<g id="edge1" class="edge">
<title>input&#45;&gt;folmer</title>
<path fill="none" stroke="black" d="M316.25,-432.09C316.25,-432.09 316.25,-375.27 316.25,-375.27"/>
<polygon fill="black" stroke="black" points="319.05,-375.27 316.25,-367.27 313.45,-375.27 319.05,-375.27"/>
</g>
<!-- leray -->
<g id="node3" class="node">
<title>leray</title>
<path fill="white" stroke="black" d="M299.88,-252.25C299.88,-252.25 212.62,-252.25 212.62,-252.25 206.62,-252.25 200.62,-246.25 200.62,-240.25 200.62,-240.25 200.62,-228.25 200.62,-228.25 200.62,-222.25 206.62,-216.25 212.62,-216.25 212.62,-216.25 299.88,-216.25 299.88,-216.25 305.88,-216.25 311.88,-222.25 311.88,-228.25 311.88,-228.25 311.88,-240.25 311.88,-240.25 311.88,-246.25 305.88,-252.25 299.88,-252.25"/>
<text xml:space="preserve" text-anchor="middle" x="256.25" y="-229.97" font-family="Times New Roman,serif" font-size="12.00">Leray Primer Match</text>
</g>
<!-- folmer&#45;&gt;leray -->
<g id="edge2" class="edge">
<title>folmer&#45;&gt;leray</title>
<path fill="none" stroke="black" d="M284.75,-329.05C284.75,-329.05 284.75,-262.2 284.75,-262.2"/>
<polygon fill="black" stroke="black" points="287.55,-262.2 284.75,-254.2 281.95,-262.2 287.55,-262.2"/>
<text xml:space="preserve" text-anchor="middle" x="303.12" y="-287" font-family="Times New Roman,serif" font-size="10.00">if fail</text>
</g>
<!-- output -->
<g id="node5" class="node">
<title>output</title>
<path fill="white" stroke="black" d="M311.5,-36C311.5,-36 237,-36 237,-36 231,-36 225,-30 225,-24 225,-24 225,-12 225,-12 225,-6 231,0 237,0 237,0 311.5,0 311.5,0 317.5,0 323.5,-6 323.5,-12 323.5,-12 323.5,-24 323.5,-24 323.5,-30 317.5,-36 311.5,-36"/>
<text xml:space="preserve" text-anchor="middle" x="274.25" y="-13.72" font-family="Times New Roman,serif" font-size="12.00">Extracted Region</text>
</g>
<!-- folmer&#45;&gt;output -->
<g id="edge4" class="edge">
<title>folmer&#45;&gt;output</title>
<path fill="none" stroke="black" d="M317.69,-329.32C317.69,-329.32 317.69,-45.64 317.69,-45.64"/>
<polygon fill="black" stroke="black" points="320.49,-45.64 317.69,-37.64 314.89,-45.64 320.49,-45.64"/>
<text xml:space="preserve" text-anchor="middle" x="396.38" y="-173.75" font-family="Times New Roman,serif" font-size="10.00">if success</text>
</g>
<!-- window -->
<g id="node4" class="node">
<title>window</title>
<path fill="white" stroke="black" d="M176.5,-139C176.5,-139 12,-139 12,-139 6,-139 0,-133 0,-127 0,-127 0,-115 0,-115 0,-109 6,-103 12,-103 12,-103 176.5,-103 176.5,-103 182.5,-103 188.5,-109 188.5,-115 188.5,-115 188.5,-127 188.5,-127 188.5,-133 182.5,-139 176.5,-139"/>
<text xml:space="preserve" text-anchor="middle" x="94.25" y="-116.72" font-family="Times New Roman,serif" font-size="12.00">Fallback Sliding Window Extraction</text>
</g>
<!-- leray&#45;&gt;window -->
<g id="edge3" class="edge">
<title>leray&#45;&gt;window</title>
<path fill="none" stroke="black" d="M212.81,-216.06C212.81,-185.46 212.81,-127 212.81,-127 212.81,-127 198.33,-127 198.33,-127"/>
<polygon fill="black" stroke="black" points="198.33,-124.2 190.33,-127 198.33,-129.8 198.33,-124.2"/>
<text xml:space="preserve" text-anchor="middle" x="171.12" y="-173.75" font-family="Times New Roman,serif" font-size="10.00">if fail</text>
</g>
<!-- leray&#45;&gt;output -->
<g id="edge5" class="edge">
<title>leray&#45;&gt;output</title>
<path fill="none" stroke="black" d="M282.92,-215.81C282.92,-215.81 282.92,-45.9 282.92,-45.9"/>
<polygon fill="black" stroke="black" points="285.72,-45.9 282.92,-37.9 280.12,-45.9 285.72,-45.9"/>
<text xml:space="preserve" text-anchor="middle" x="293.38" y="-117.12" font-family="Times New Roman,serif" font-size="10.00">if success</text>
</g>
<!-- window&#45;&gt;output -->
<g id="edge6" class="edge">
<title>window&#45;&gt;output</title>
<path fill="none" stroke="black" d="M189,-115C223.39,-115 253.96,-115 253.96,-115 253.96,-115 253.96,-45.76 253.96,-45.76"/>
<polygon fill="black" stroke="black" points="256.76,-45.76 253.96,-37.76 251.16,-45.76 256.76,-45.76"/>
</g>
</g>
</svg>
